<?xml version="1.0" encoding="UTF-8"?>
<svg version="1.1" xmlns="http://www.w3.org/2000/svg" width="128" height="128">
<path d="M0 0 C0.78058273 -0.00902847 1.56116547 -0.01805695 2.36540222 -0.02735901 C4.01708137 -0.04186126 5.66881796 -0.05074819 7.32055664 -0.05444336 C9.83644653 -0.06631648 12.3498639 -0.11547648 14.86523438 -0.16601562 C16.47264432 -0.17548318 18.08006929 -0.18271663 19.6875 -0.1875 C20.43457718 -0.20703232 21.18165436 -0.22656464 21.95137024 -0.24668884 C25.91654841 -0.21277538 28.45833801 0.31700811 31.50268555 2.78100586 C35.47073794 6.82685572 35.22864101 9.84266765 35.28125 15.265625 C35.28932175 16.04999435 35.29739349 16.83436371 35.30570984 17.64250183 C35.31954937 19.30437002 35.33027212 20.96626662 35.33813477 22.62817383 C35.35533228 25.1634751 35.3992153 27.69746689 35.44335938 30.23242188 C35.4534879 31.84764667 35.46200351 33.46288254 35.46875 35.078125 C35.48625809 35.83350052 35.50376617 36.58887604 35.52180481 37.36714172 C35.50653674 41.09294395 35.18290917 43.15684615 33.12475586 46.30786133 C29.70239033 49.69972378 28.05615106 50.32023118 23.15234375 50.56640625 C21.6990898 50.55319485 20.24589956 50.52946495 18.79296875 50.49609375 C18.04789063 50.48707031 17.3028125 50.47804687 16.53515625 50.46875 C14.70428816 50.44527733 12.87358637 50.409409 11.04296875 50.37109375 C11.089375 51.45648438 11.13578125 52.541875 11.18359375 53.66015625 C11.22113362 55.10544106 11.25753139 56.55075586 11.29296875 57.99609375 C11.34324219 59.06537109 11.34324219 59.06537109 11.39453125 60.15625 C11.49016601 65.36834459 10.49055516 68.24143089 7.04296875 72.37109375 C3.32809889 74.84767366 0.39207322 74.71152625 -3.9140625 74.7421875 C-4.69464523 74.75121597 -5.47522797 74.76024445 -6.27946472 74.76954651 C-7.93114387 74.78404876 -9.58288046 74.79293569 -11.23461914 74.79663086 C-13.75050903 74.80850398 -16.2639264 74.85766398 -18.77929688 74.90820312 C-20.38670682 74.91767068 -21.99413179 74.92490413 -23.6015625 74.9296875 C-24.34863968 74.94921982 -25.09571686 74.96875214 -25.86543274 74.98887634 C-29.83061091 74.95496288 -32.37240051 74.42517939 -35.41674805 71.96118164 C-39.38480044 67.91533178 -39.14270351 64.89951985 -39.1953125 59.4765625 C-39.20338425 58.69219315 -39.21145599 57.90782379 -39.21977234 57.09968567 C-39.23361187 55.43781748 -39.24433462 53.77592088 -39.25219727 52.11401367 C-39.26939478 49.5787124 -39.3132778 47.04472061 -39.35742188 44.50976562 C-39.3675504 42.89454083 -39.37606601 41.27930496 -39.3828125 39.6640625 C-39.40032059 38.90868698 -39.41782867 38.15331146 -39.43586731 37.37504578 C-39.42059924 33.64924355 -39.09697167 31.58534135 -37.03881836 28.43432617 C-33.61645283 25.04246372 -31.97021356 24.42195632 -27.06640625 24.17578125 C-25.6131523 24.18899265 -24.15996206 24.21272255 -22.70703125 24.24609375 C-21.96195313 24.25511719 -21.216875 24.26414062 -20.44921875 24.2734375 C-18.61835066 24.29691017 -16.78764887 24.3327785 -14.95703125 24.37109375 C-15.0034375 23.28570312 -15.04984375 22.2003125 -15.09765625 21.08203125 C-15.13519612 19.63674644 -15.17159389 18.19143164 -15.20703125 16.74609375 C-15.24054687 16.03324219 -15.2740625 15.32039063 -15.30859375 14.5859375 C-15.40422851 9.37384291 -14.40461766 6.50075661 -10.95703125 2.37109375 C-7.24216139 -0.10548616 -4.30613572 0.03066125 0 0 Z M20.04296875 16.37109375 C19.38296875 17.03109375 18.72296875 17.69109375 18.04296875 18.37109375 C18.12868536 20.46400532 18.12868536 20.46400532 19.04296875 22.37109375 C20.03296875 22.70109375 21.02296875 23.03109375 22.04296875 23.37109375 C22.70296875 22.71109375 23.36296875 22.05109375 24.04296875 21.37109375 C23.95725214 19.27818218 23.95725214 19.27818218 23.04296875 17.37109375 C22.05296875 17.04109375 21.06296875 16.71109375 20.04296875 16.37109375 Z M-0.95703125 16.37109375 C-1.94703125 17.36109375 -2.93703125 18.35109375 -3.95703125 19.37109375 C-3.62703125 20.36109375 -3.29703125 21.35109375 -2.95703125 22.37109375 C-1.96703125 22.70109375 -0.97703125 23.03109375 0.04296875 23.37109375 C1.03296875 22.38109375 2.02296875 21.39109375 3.04296875 20.37109375 C2.71296875 19.38109375 2.38296875 18.39109375 2.04296875 17.37109375 C1.05296875 17.04109375 0.06296875 16.71109375 -0.95703125 16.37109375 Z M11.04296875 34.37109375 C11.04296875 36.02109375 11.04296875 37.67109375 11.04296875 39.37109375 C12.32171875 39.08234375 13.60046875 38.79359375 14.91796875 38.49609375 C15.99691406 38.25246094 15.99691406 38.25246094 17.09765625 38.00390625 C19.25016839 37.46634947 19.25016839 37.46634947 21.04296875 35.37109375 C20.72445105 33.26288578 20.72445105 33.26288578 20.04296875 31.37109375 C16.73941329 31.37109375 14.02188626 33.04713041 11.04296875 34.37109375 Z M-26.95703125 41.37109375 C-27.28703125 43.02109375 -27.61703125 44.67109375 -27.95703125 46.37109375 C-25.48203125 46.86609375 -25.48203125 46.86609375 -22.95703125 47.37109375 C-22.27554895 45.47930172 -22.27554895 45.47930172 -21.95703125 43.37109375 C-22.61703125 42.71109375 -23.27703125 42.05109375 -23.95703125 41.37109375 C-24.94703125 41.37109375 -25.93703125 41.37109375 -26.95703125 41.37109375 Z M-4.95703125 41.37109375 C-5.61703125 42.69109375 -6.27703125 44.01109375 -6.95703125 45.37109375 C-6.29703125 46.03109375 -5.63703125 46.69109375 -4.95703125 47.37109375 C-2.84882328 47.05257605 -2.84882328 47.05257605 -0.95703125 46.37109375 C-0.95703125 45.05109375 -0.95703125 43.73109375 -0.95703125 42.37109375 C-2.27703125 42.04109375 -3.59703125 41.71109375 -4.95703125 41.37109375 Z M-23.95703125 56.37109375 C-23.95703125 57.69109375 -23.95703125 59.01109375 -23.95703125 60.37109375 C-20.21691129 63.86187238 -16.20345522 63.81985693 -11.33984375 63.66015625 C-8.20650012 63.28004571 -6.27253427 62.53222991 -3.95703125 60.37109375 C-3.95703125 59.05109375 -3.95703125 57.73109375 -3.95703125 56.37109375 C-4.57578125 56.53609375 -5.19453125 56.70109375 -5.83203125 56.87109375 C-11.79814124 57.82567135 -18.08633002 57.93661408 -23.95703125 56.37109375 Z " fill="#FFFFFF" transform="translate(65.95703125,26.62890625)"/>
</svg>
