<?xml version="1.0" encoding="UTF-8"?>
<svg version="1.1" xmlns="http://www.w3.org/2000/svg" width="128" height="128">
<path d="M0 0 C5.61 0 11.22 0 17 0 C17.33 1.65 17.66 3.3 18 5 C21.3 5 24.6 5 28 5 C28.33 3.35 28.66 1.7 29 0 C36.26 0 43.52 0 51 0 C51.66 1.65 52.32 3.3 53 5 C55.97 5 58.94 5 62 5 C62.66 3.35 63.32 1.7 64 0 C69.61 0 75.22 0 81 0 C81.13516583 3.39716777 81.23419231 6.78894608 81.3125 10.1875 C81.35439453 11.14720703 81.39628906 12.10691406 81.43945312 13.09570312 C81.45556641 14.02705078 81.47167969 14.95839844 81.48828125 15.91796875 C81.51446533 16.77156982 81.54064941 17.6251709 81.56762695 18.50463867 C80.72574875 22.2056439 78.90170749 23.61608462 76 26 C72.73693848 26.63491821 72.73693848 26.63491821 68.99414062 26.64697266 C68.30893845 26.65573425 67.62373627 26.66449585 66.91777039 26.67352295 C64.66327717 26.69544661 62.4107615 26.68099222 60.15625 26.6640625 C58.58353297 26.66743273 57.01081849 26.67228708 55.43811035 26.67855835 C52.14615009 26.68592004 48.85486938 26.67524787 45.56298828 26.65185547 C41.34922446 26.6233669 37.13705291 26.63977483 32.92334747 26.66971779 C29.67698226 26.68781052 26.4309928 26.68202395 23.18461609 26.66907883 C21.63132029 26.66575021 20.07799007 26.66981279 18.5247345 26.68147659 C16.35086096 26.69421943 14.17954312 26.67476729 12.00585938 26.64697266 C10.77073608 26.64299469 9.53561279 26.63901672 8.26306152 26.63491821 C4.10803249 25.82644323 2.61366876 24.25900076 0 21 C-0.56762695 18.50463867 -0.56762695 18.50463867 -0.48828125 15.91796875 C-0.47216797 14.98662109 -0.45605469 14.05527344 -0.43945312 13.09570312 C-0.39755859 12.13599609 -0.35566406 11.17628906 -0.3125 10.1875 C-0.28994141 9.20845703 -0.26738281 8.22941406 -0.24414062 7.22070312 C-0.18541964 4.8131427 -0.09574426 2.40637246 0 0 Z " fill="#FFFFFF" transform="translate(23,67)"/>
<path d="M0 0 C1.12792969 -0.02320313 2.25585938 -0.04640625 3.41796875 -0.0703125 C11.23182113 -0.01482952 11.23182113 -0.01482952 14.39453125 1.89257812 C17.02681332 4.67686522 17.50861618 6.85684069 17.8125 10.625 C17.709375 11.65625 17.60625 12.6875 17.5 13.75 C18.59699219 13.71519531 19.69398437 13.68039063 20.82421875 13.64453125 C22.27863045 13.61638135 23.7330588 13.58908248 25.1875 13.5625 C25.90873047 13.53736328 26.62996094 13.51222656 27.37304688 13.48632812 C31.97207891 13.42332769 34.87434807 13.86427704 38.5 16.75 C40.5 19.75 40.5 19.75 40.5 27.75 C34.89 27.75 29.28 27.75 23.5 27.75 C23.005 26.76 23.005 26.76 22.5 25.75 C19.91394668 25.2816735 19.91394668 25.2816735 16.9375 25.125 C15.41962891 25.01285156 15.41962891 25.01285156 13.87109375 24.8984375 C12.69740234 24.82496094 12.69740234 24.82496094 11.5 24.75 C11.005 26.235 11.005 26.235 10.5 27.75 C3.24 27.75 -4.02 27.75 -11.5 27.75 C-11.5 26.76 -11.5 25.77 -11.5 24.75 C-13.31325551 24.86351517 -15.12563357 24.99112961 -16.9375 25.125 C-17.94683594 25.19460937 -18.95617187 25.26421875 -19.99609375 25.3359375 C-20.82238281 25.47257812 -21.64867188 25.60921875 -22.5 25.75 C-22.83 26.41 -23.16 27.07 -23.5 27.75 C-29.11 27.75 -34.72 27.75 -40.5 27.75 C-40.5 19.75 -40.5 19.75 -38.6875 16.8125 C-34.70240543 13.05512512 -30.47254974 13.62891428 -25.3125 13.6875 C-24.56291016 13.69201172 -23.81332031 13.69652344 -23.04101562 13.70117188 C-21.19397617 13.71293646 -19.34697787 13.73087135 -17.5 13.75 C-17.603125 12.71875 -17.70625 11.6875 -17.8125 10.625 C-17.50861618 6.85684069 -17.02681332 4.67686522 -14.39453125 1.89257812 C-10.08641786 -0.70561397 -4.86881026 -0.10015838 0 0 Z M-10.5 9.75 C-10.5 11.07 -10.5 12.39 -10.5 13.75 C-3.9 13.75 2.7 13.75 9.5 13.75 C9.5 12.1 9.5 10.45 9.5 8.75 C7.39868615 6.64868615 2.95853678 7.56485259 0.0625 7.5625 C-1.12182617 7.54413086 -1.12182617 7.54413086 -2.33007812 7.52539062 C-6.89134909 7.31110442 -6.89134909 7.31110442 -10.5 9.75 Z " fill="#FFFFFF" transform="translate(63.5,33.25)"/>
</svg>
