<?xml version="1.0" encoding="UTF-8"?>
<svg version="1.1" xmlns="http://www.w3.org/2000/svg" width="128" height="128">
<path d="M0 0 C2.31 0 4.62 0 7 0 C7 0.99 7 1.98 7 3 C8.27875 3.061875 9.5575 3.12375 10.875 3.1875 C11.59429687 3.22230469 12.31359375 3.25710937 13.0546875 3.29296875 C14.01761719 3.14794922 14.01761719 3.14794922 15 3 C15.66 2.01 16.32 1.02 17 0 C18.9453125 -0.29296875 18.9453125 -0.29296875 21.125 -0.1875 C22.40375 -0.125625 23.6825 -0.06375 25 0 C25 2.31 25 4.62 25 7 C39.19 7 53.38 7 68 7 C68 4.69 68 2.38 68 0 C70.64 0 73.28 0 76 0 C76 0.99 76 1.98 76 3 C79.3 3 82.6 3 86 3 C86 2.01 86 1.02 86 0 C88.31 0 90.62 0 93 0 C93 20.13 93 40.26 93 61 C90.69 61 88.38 61 86 61 C85.67 60.34 85.34 59.68 85 59 C82.36 59 79.72 59 77 59 C76.505 59.99 76.505 59.99 76 61 C73.36 61 70.72 61 68 61 C68 58.69 68 56.38 68 54 C53.81 54 39.62 54 25 54 C25 56.31 25 58.62 25 61 C22.36 61 19.72 61 17 61 C16.67 60.34 16.34 59.68 16 59 C13.36 59 10.72 59 8 59 C7.67 59.66 7.34 60.32 7 61 C4.69 61 2.38 61 0 61 C0 40.87 0 20.74 0 0 Z M7 12 C6.95745644 13.99954746 6.95919217 16.00041636 7 18 C7.97910585 19.19695276 7.97910585 19.19695276 9.8125 19.1328125 C10.534375 19.13023438 11.25625 19.12765625 12 19.125 C12.721875 19.12757812 13.44375 19.13015625 14.1875 19.1328125 C16.02089415 19.19695276 16.02089415 19.19695276 17 18 C17.2500773 15.54190002 17.2500773 15.54190002 17 13 C15.11624325 10.67516215 15.11624325 10.67516215 12 10.8125 C9.07613397 10.79920391 9.07613397 10.79920391 7 12 Z M76 12 C75.95745644 13.99954746 75.95919217 16.00041636 76 18 C76.97910585 19.19695276 76.97910585 19.19695276 78.8125 19.1328125 C79.534375 19.13023438 80.25625 19.12765625 81 19.125 C81.721875 19.12757812 82.44375 19.13015625 83.1875 19.1328125 C85.02089415 19.19695276 85.02089415 19.19695276 86 18 C86.04080783 16.00041636 86.04254356 13.99954746 86 12 C82.76674981 10.38337491 79.23325019 10.38337491 76 12 Z M25 15 C25 25.23 25 35.46 25 46 C39.19 46 53.38 46 68 46 C68 35.77 68 25.54 68 15 C53.81 15 39.62 15 25 15 Z M7 28 C6.95919217 29.99958364 6.95745644 32.00045254 7 34 C8.47906892 34.02689216 9.95827483 34.04634621 11.4375 34.0625 C12.67306641 34.07990234 12.67306641 34.07990234 13.93359375 34.09765625 C15.99163938 34.23267348 15.99163938 34.23267348 17 33 C17.16666667 30.5 17.16666667 30.5 17 28 C16.02089415 26.80304724 16.02089415 26.80304724 14.1875 26.8671875 C13.465625 26.86976562 12.74375 26.87234375 12 26.875 C11.278125 26.87242188 10.55625 26.86984375 9.8125 26.8671875 C7.97910585 26.80304724 7.97910585 26.80304724 7 28 Z M76 28 C75.83333333 30.5 75.83333333 30.5 76 33 C76.97910585 34.19695276 76.97910585 34.19695276 78.8125 34.1328125 C79.534375 34.13023438 80.25625 34.12765625 81 34.125 C81.721875 34.12757812 82.44375 34.13015625 83.1875 34.1328125 C85.02089415 34.19695276 85.02089415 34.19695276 86 33 C86.16666667 30.5 86.16666667 30.5 86 28 C85.02089415 26.80304724 85.02089415 26.80304724 83.1875 26.8671875 C82.465625 26.86976562 81.74375 26.87234375 81 26.875 C80.278125 26.87242188 79.55625 26.86984375 78.8125 26.8671875 C76.97910585 26.80304724 76.97910585 26.80304724 76 28 Z M7 43 C6.83333333 46 6.83333333 46 7 49 C7.97910585 50.19695276 7.97910585 50.19695276 9.8125 50.1328125 C10.534375 50.13023438 11.25625 50.12765625 12 50.125 C12.721875 50.12757812 13.44375 50.13015625 14.1875 50.1328125 C16.02089415 50.19695276 16.02089415 50.19695276 17 49 C17.16666667 46 17.16666667 46 17 43 C16.02089415 41.80304724 16.02089415 41.80304724 14.1875 41.8671875 C13.465625 41.86976562 12.74375 41.87234375 12 41.875 C11.278125 41.87242188 10.55625 41.86984375 9.8125 41.8671875 C7.97910585 41.80304724 7.97910585 41.80304724 7 43 Z M76 43 C75.83333333 46 75.83333333 46 76 49 C76.97910585 50.19695276 76.97910585 50.19695276 78.8125 50.1328125 C79.534375 50.13023438 80.25625 50.12765625 81 50.125 C81.721875 50.12757812 82.44375 50.13015625 83.1875 50.1328125 C85.02089415 50.19695276 85.02089415 50.19695276 86 49 C86.16666667 46 86.16666667 46 86 43 C85.02089415 41.80304724 85.02089415 41.80304724 83.1875 41.8671875 C82.465625 41.86976562 81.74375 41.87234375 81 41.875 C80.278125 41.87242188 79.55625 41.86984375 78.8125 41.8671875 C76.97910585 41.80304724 76.97910585 41.80304724 76 43 Z " fill="#FFFFFF" transform="translate(17,34)"/>
</svg>
