<?xml version="1.0" encoding="UTF-8"?>
<svg version="1.1" xmlns="http://www.w3.org/2000/svg" width="128" height="128">
<path d="M0 0 C0.828125 2.6015625 0.828125 2.6015625 1.25 5.625 C1.39953125 6.62789062 1.5490625 7.63078125 1.703125 8.6640625 C1.85007812 9.82035156 1.85007812 9.82035156 2 11 C3.10859375 10.95359375 4.2171875 10.9071875 5.359375 10.859375 C6.82288968 10.82184898 8.28643356 10.78544971 9.75 10.75 C10.47960937 10.71648438 11.20921875 10.68296875 11.9609375 10.6484375 C15.21327661 10.58930406 17.46529864 10.64262578 20.20776367 12.47558594 C22.82587095 16.1632619 22.59316895 19.3572813 22.56640625 23.78125 C22.57260483 24.63174927 22.57880341 25.48224854 22.58518982 26.35852051 C22.59228304 28.15387834 22.58912259 29.94930202 22.57641602 31.74462891 C22.56254475 34.49113947 22.59663047 37.23424569 22.63476562 39.98046875 C22.63571681 41.72656333 22.63385803 43.47266218 22.62890625 45.21875 C22.64216446 46.03863403 22.65542267 46.85851807 22.66908264 47.70324707 C22.65028297 48.85464172 22.65028297 48.85464172 22.63110352 50.02929688 C22.63014175 50.70118042 22.62917999 51.37306396 22.62818909 52.06530762 C21.61197647 55.19503217 19.73144936 56.28464904 17 58 C14.11657715 58.50793457 14.11657715 58.50793457 10.91210938 58.51757812 C9.70735962 58.53018677 8.50260986 58.54279541 7.26135254 58.55578613 C5.9685437 58.54768921 4.67573486 58.53959229 3.34375 58.53125 C1.99523641 58.53394701 0.64672473 58.53783117 -0.70178223 58.54284668 C-3.52289411 58.54873211 -6.34349811 58.54021068 -9.16455078 58.52148438 C-12.77283405 58.49869415 -16.37992717 58.51182254 -19.98816681 58.53577423 C-22.7712697 58.55025883 -25.55409245 58.54561431 -28.33720398 58.53526306 C-30.31192807 58.53131364 -32.28666323 58.54341856 -34.26135254 58.55578613 C-35.46610229 58.54317749 -36.67085205 58.53056885 -37.91210938 58.51757812 C-38.96958374 58.51439575 -40.02705811 58.51121338 -41.11657715 58.50793457 C-44.75906549 57.86628544 -46.43487658 56.63269203 -49 54 C-49.62818909 52.06530762 -49.62818909 52.06530762 -49.63110352 50.02929688 C-49.64363663 49.26170044 -49.65616974 48.494104 -49.66908264 47.70324707 C-49.65582443 46.88336304 -49.64256622 46.063479 -49.62890625 45.21875 C-49.63131821 44.36825073 -49.63373016 43.51775146 -49.63621521 42.64147949 C-49.63523716 40.84606252 -49.62185331 39.05061525 -49.59692383 37.25537109 C-49.56261304 34.50904787 -49.57626517 31.76594257 -49.59570312 29.01953125 C-49.58880448 27.27342382 -49.57913193 25.52732469 -49.56640625 23.78125 C-49.57136612 22.96136597 -49.57632599 22.14148193 -49.58143616 21.29675293 C-49.50435211 17.56044387 -49.41610152 15.59059571 -47.22143555 12.47558594 C-44.81574605 10.87760953 -43.73750378 10.52310595 -40.890625 10.609375 C-40.13652344 10.62226562 -39.38242187 10.63515625 -38.60546875 10.6484375 C-37.43951172 10.69871094 -37.43951172 10.69871094 -36.25 10.75 C-35.06083984 10.77707031 -35.06083984 10.77707031 -33.84765625 10.8046875 C-31.89791652 10.85166918 -29.94880122 10.92340956 -28 11 C-27.95101562 10.38511719 -27.90203125 9.77023438 -27.8515625 9.13671875 C-27.77679688 8.32847656 -27.70203125 7.52023438 -27.625 6.6875 C-27.55539063 5.88699219 -27.48578125 5.08648437 -27.4140625 4.26171875 C-27 2 -27 2 -25 -1 C-18.22861256 -3.97576668 -6.09833774 -4.6186957 0 0 Z M-25.75 25.6875 C-28.49160901 29.21242586 -29.42499257 32.55007784 -29 37 C-27.34646314 42.3183934 -24.73382885 45.96549433 -20 49 C-15.29477445 50.56840852 -11.47351184 50.54895539 -6.8125 48.8125 C-2.30463671 45.90743255 0.66297109 42.22656754 2 37 C2.1084573 30.38410488 0.21889771 27.38267389 -4.2109375 22.56640625 C-7.67381809 19.53449552 -11.41894441 19.71834861 -15.7890625 19.7890625 C-20.36153809 20.22530575 -22.56620854 22.57606744 -25.75 25.6875 Z " fill="#FFFFFF" transform="translate(77,37)"/>
<path d="M0 0 C2.72235378 1.934304 3.75092091 3.30613681 4.875 6.4375 C5.02583739 9.52966652 4.46741381 11.28528446 3 14 C-0.7205836 16.48038907 -2.59796571 16.46337203 -7 16 C-9.68601216 14.09151767 -10.7337462 12.67450962 -11.9375 9.625 C-12.0221688 6.06891031 -10.83947665 3.99766565 -9 1 C-5.90826248 -0.54586876 -3.40570448 -0.29359521 0 0 Z " fill="#FFFFFF" transform="translate(67,64)"/>
</svg>
