<?xml version="1.0" encoding="UTF-8"?>
<svg version="1.1" xmlns="http://www.w3.org/2000/svg" width="128" height="128">
<path d="M0 0 C5.06705622 1.85735 8.55092914 6.12703562 12.3125 9.84765625 C13.83361084 11.12259072 15.37549307 12.37316841 16.9375 13.59765625 C17.741875 14.23832031 18.54625 14.87898438 19.375 15.5390625 C21.0148365 16.82781699 22.65784516 18.11265133 24.3125 19.38232422 C26.53145717 21.08666163 28.73455811 22.81018834 30.9375 24.53515625 C31.66146973 25.08204102 32.38543945 25.62892578 33.13134766 26.19238281 C38.19010296 30.18543348 38.19010296 30.18543348 38.8359375 33.6796875 C38.3125 35.84765625 38.3125 35.84765625 37.3125 36.84765625 C34.95936445 36.92037366 32.60416332 36.93136493 30.25 36.91015625 C28.31447266 36.89662109 28.31447266 36.89662109 26.33984375 36.8828125 C25.34082031 36.87121094 24.34179688 36.85960937 23.3125 36.84765625 C23.32821045 37.63938232 23.3439209 38.4311084 23.36010742 39.24682617 C23.42256699 42.8428632 23.46152635 46.43878595 23.5 50.03515625 C23.52513672 51.28103516 23.55027344 52.52691406 23.57617188 53.81054688 C23.58583984 55.01259766 23.59550781 56.21464844 23.60546875 57.453125 C23.6211792 58.55809326 23.63688965 59.66306152 23.65307617 60.80151367 C23.26904631 64.23630981 22.36063635 66.0905616 20.3125 68.84765625 C16.91069251 70.54855999 13.0333744 70.05428941 9.2890625 70.0859375 C7.94248062 70.09804512 7.94248062 70.09804512 6.56869507 70.11039734 C4.66723565 70.12423916 2.76575136 70.13496088 0.86425781 70.14282227 C-2.04409784 70.16004726 -4.95132032 70.20393316 -7.859375 70.24804688 C-9.7057208 70.2581727 -11.55207627 70.26668915 -13.3984375 70.2734375 C-14.2683432 70.29094559 -15.1382489 70.30845367 -16.03451538 70.32649231 C-22.08221594 70.30475898 -22.08221594 70.30475898 -25.20556641 67.94604492 C-27.76426894 64.32297271 -27.80584387 62.1732446 -27.78515625 57.74609375 C-27.78193359 56.534375 -27.77871094 55.32265625 -27.77539062 54.07421875 C-27.76701172 52.80320313 -27.75863281 51.5321875 -27.75 50.22265625 C-27.74323242 48.30453125 -27.74323242 48.30453125 -27.73632812 46.34765625 C-27.72451203 43.18094333 -27.70803815 40.01432269 -27.6875 36.84765625 C-29.18603516 36.86505859 -29.18603516 36.86505859 -30.71484375 36.8828125 C-32.00519531 36.89183594 -33.29554687 36.90085938 -34.625 36.91015625 C-35.91277344 36.92175781 -37.20054688 36.93335938 -38.52734375 36.9453125 C-41.6875 36.84765625 -41.6875 36.84765625 -42.6875 35.84765625 C-43.1015625 33.60546875 -43.1015625 33.60546875 -42.6875 30.84765625 C-40.84741087 28.88530206 -39.16328071 27.35689606 -37.0625 25.72265625 C-36.48145508 25.25110107 -35.90041016 24.7795459 -35.30175781 24.29370117 C-33.44378252 22.79385086 -31.56868142 21.3182662 -29.6875 19.84765625 C-29.07874023 19.36925293 -28.46998047 18.89084961 -27.84277344 18.39794922 C-22.92815019 14.53721324 -22.92815019 14.53721324 -20.65112305 12.78735352 C-17.1690928 10.09538426 -14.01110944 7.25808696 -10.875 4.16015625 C-7.36935519 1.0425902 -4.76245057 -0.45474788 0 0 Z M-16.6875 34.84765625 C-17.36708603 37.24485057 -17.36708603 37.24485057 -17.6875 39.84765625 C-17.0275 40.50765625 -16.3675 41.16765625 -15.6875 41.84765625 C-13.57929203 41.52913855 -13.57929203 41.52913855 -11.6875 40.84765625 C-11.30531233 39.19150968 -10.97354898 37.52308601 -10.6875 35.84765625 C-11.75395115 34.55132004 -11.75395115 34.55132004 -14.25 34.78515625 C-15.054375 34.80578125 -15.85875 34.82640625 -16.6875 34.84765625 Z M7.3125 34.84765625 C6.63291397 37.24485057 6.63291397 37.24485057 6.3125 39.84765625 C6.9725 40.50765625 7.6325 41.16765625 8.3125 41.84765625 C10.42070797 41.52913855 10.42070797 41.52913855 12.3125 40.84765625 C12.69468767 39.19150968 13.02645102 37.52308601 13.3125 35.84765625 C12.24604885 34.55132004 12.24604885 34.55132004 9.75 34.78515625 C8.945625 34.80578125 8.14125 34.82640625 7.3125 34.84765625 Z M-13.6875 52.84765625 C-14.0175 53.83765625 -14.3475 54.82765625 -14.6875 55.84765625 C-10.86739264 59.79510053 -7.55709798 60.61652135 -2.265625 60.94921875 C1.88901302 60.78555119 4.62513352 59.79190403 8.3125 57.84765625 C9.07368224 55.80076206 9.07368224 55.80076206 9.3125 53.84765625 C7.65635343 53.46546858 5.98792976 53.13370523 4.3125 52.84765625 C3.9825 53.17765625 3.6525 53.50765625 3.3125 53.84765625 C1.39798183 53.94749309 -0.52038619 53.97733214 -2.4375 53.97265625 C-3.48421875 53.97523437 -4.5309375 53.9778125 -5.609375 53.98046875 C-8.41973122 53.85920973 -10.95389609 53.48549716 -13.6875 52.84765625 Z " fill="#FFFFFF" transform="translate(66.6875,28.15234375)"/>
</svg>
