<?xml version="1.0" encoding="UTF-8"?>
<svg version="1.1" xmlns="http://www.w3.org/2000/svg" width="128" height="128">
<path d="M0 0 C1.08023438 -0.0103125 2.16046875 -0.020625 3.2734375 -0.03125 C6.75237324 0.5201897 8.78265338 1.75947828 11.73681641 3.59179688 C15.23744436 5.27557448 18.8096952 5.07681822 22.625 5 C23.77742188 5.02320313 23.77742188 5.02320313 24.953125 5.046875 C28.99666375 5.01936793 31.80819601 4.65019205 35.27734375 2.50390625 C40.56801681 -0.66308941 45.63535345 -0.38649852 51.625 0.5 C56.47821007 2.65596288 58.66369537 6.75374575 60.625 11.5 C61.56609254 15.63676109 62.20112458 19.80328056 62.8125 24 C63.07184326 25.73926758 63.07184326 25.73926758 63.33642578 27.51367188 C65.68999417 44.06980812 65.68999417 44.06980812 64.625 51.5 C61.87162027 54.25337973 60.1528476 53.83150795 56.3125 53.875 C55.18199219 53.90335938 54.05148438 53.93171875 52.88671875 53.9609375 C48.90358319 53.39805128 47.44579743 52.33029506 44.625 49.5 C42.60546875 46.7734375 42.60546875 46.7734375 40.8125 43.875 C40.20792969 42.91335937 39.60335937 41.95171875 38.98046875 40.9609375 C37.625 38.5 37.625 38.5 37.625 36.5 C27.725 36.5 17.825 36.5 7.625 36.5 C6.965 38.48 6.305 40.46 5.625 42.5 C3.75 45.23828125 3.75 45.23828125 1.625 47.8125 C0.92375 48.67488281 0.2225 49.53726563 -0.5 50.42578125 C-2.91455118 53.09687849 -3.73058296 53.46353956 -7.34375 53.66796875 C-9.09171875 53.67763672 -9.09171875 53.67763672 -10.875 53.6875 C-12.0403125 53.70167969 -13.205625 53.71585938 -14.40625 53.73046875 C-17.375 53.5 -17.375 53.5 -19.375 51.5 C-20.67171343 42.45316209 -18.93008078 33.01447991 -17.625 24.0625 C-17.46821777 22.93714844 -17.31143555 21.81179687 -17.14990234 20.65234375 C-15.96039032 13.00662123 -14.54453826 7.74324845 -9.0234375 2.09375 C-5.79234995 0.14937873 -3.75337772 -0.03566155 0 0 Z " fill="#FFFFFF" transform="translate(41.375,37.5)"/>
</svg>
