<?xml version="1.0" encoding="UTF-8"?>
<svg version="1.1" xmlns="http://www.w3.org/2000/svg" width="128" height="128">
<path d="M0 0 C6.96584641 0 9.89851975 0.1807513 16 2 C19.7259967 2.31309349 19.7259967 2.31309349 23.5 2.25 C25.37171875 2.25773437 25.37171875 2.25773437 27.28125 2.265625 C31.11137588 1.99204458 34.33209934 1.09521624 38 0 C40.6171875 -0.23046875 40.6171875 -0.23046875 42.875 -0.1875 C44.01582031 -0.17783203 44.01582031 -0.17783203 45.1796875 -0.16796875 C47 0 47 0 48 1 C48.12536197 2.86443631 48.18076346 4.73361409 48.20874023 6.60205078 C48.22803085 7.80064728 48.24732147 8.99924377 48.26719666 10.23416138 C48.32474107 15.7403958 48.37456132 21.24647729 48.4050293 26.75292969 C48.42279708 29.65735407 48.45753392 32.56079911 48.50756836 35.46484375 C48.56795884 38.97393048 48.59853129 42.48211377 48.60820198 45.9916954 C48.62086523 47.97207479 48.66287912 49.9521967 48.70542908 51.93215942 C48.68248336 62.00120527 48.68248336 62.00120527 45.08618164 66.31201172 C41.36113114 69.92250921 38.73294497 70.18083017 33.5625 70.25 C31.83193359 70.28867188 31.83193359 70.28867188 30.06640625 70.328125 C27 70 27 70 25.125 68.71875 C23.53848052 66.29490079 23.41049321 63.98188403 23.515625 61.1328125 C24.41836299 57.15785328 26.96449745 54.59058256 30 52 C33.43498717 50.1189356 34.99422503 50 39 50 C39 38.45 39 26.9 39 15 C35.7 15.66 32.4 16.32 29 17 C25.93359375 17.265625 25.93359375 17.265625 23.4375 17.25 C22.19806641 17.25773437 22.19806641 17.25773437 20.93359375 17.265625 C18.29269796 17.02650261 15.89643943 16.57111351 13.31665039 15.98339844 C12.50780899 15.80017029 11.69896759 15.61694214 10.86561584 15.42816162 C10.24996262 15.28686829 9.63430939 15.14557495 9 15 C8.99413376 15.57771652 8.98826752 16.15543304 8.98222351 16.75065613 C8.91823646 22.76939463 8.83380307 28.78760105 8.73754883 34.8059082 C8.70431649 37.0512795 8.67627931 39.296734 8.65356445 41.54223633 C8.61998798 44.77200743 8.56766927 48.00101727 8.51171875 51.23046875 C8.50532883 52.23272995 8.4989389 53.23499115 8.49235535 54.2676239 C8.30822969 63.01708207 8.30822969 63.01708207 5 67 C1.18373073 69.99662381 -1.82902583 70.43198739 -6.625 70.4375 C-7.75164063 70.45683594 -8.87828125 70.47617188 -10.0390625 70.49609375 C-13 70 -13 70 -14.890625 68.24609375 C-16.49900168 64.9896973 -16.30116945 62.78542051 -15.765625 59.2578125 C-14.41548127 55.27626621 -11.70842398 52.86085791 -8 51 C-4.535 50.505 -4.535 50.505 -1 50 C-0.67 33.5 -0.34 17 0 0 Z " fill="#FFFFFF" transform="translate(48,29)"/>
</svg>
