<?xml version="1.0" encoding="UTF-8"?>
<svg version="1.1" xmlns="http://www.w3.org/2000/svg" width="128" height="128">
<path d="M0 0 C2.19140625 1.39453125 2.19140625 1.39453125 4.125 2.875 C4.77339844 3.33261719 5.42179687 3.79023437 6.08984375 4.26171875 C10.56379554 7.71413398 13.55119601 11.87198775 16.125 16.875 C16.49109375 17.57109375 16.8571875 18.2671875 17.234375 18.984375 C19.88676648 27.593014 19.9308457 40.59760298 16 48.75 C14.60546875 50.94140625 14.60546875 50.94140625 13.125 52.875 C12.66738281 53.52339844 12.20976563 54.17179687 11.73828125 54.83984375 C8.28586602 59.31379554 4.12801225 62.30119601 -0.875 64.875 C-1.57109375 65.24109375 -2.2671875 65.6071875 -2.984375 65.984375 C-11.593014 68.63676648 -24.59760298 68.6808457 -32.75 64.75 C-34.94140625 63.35546875 -34.94140625 63.35546875 -36.875 61.875 C-37.84759766 61.18857422 -37.84759766 61.18857422 -38.83984375 60.48828125 C-43.31379554 57.03586602 -46.30119601 52.87801225 -48.875 47.875 C-49.24109375 47.17890625 -49.6071875 46.4828125 -49.984375 45.765625 C-52.63676648 37.156986 -52.6808457 24.15239702 -48.75 16 C-47.35546875 13.80859375 -47.35546875 13.80859375 -45.875 11.875 C-45.41738281 11.22660156 -44.95976563 10.57820313 -44.48828125 9.91015625 C-41.03586602 5.43620446 -36.87801225 2.44880399 -31.875 -0.125 C-31.17890625 -0.49109375 -30.4828125 -0.8571875 -29.765625 -1.234375 C-21.156986 -3.88676648 -8.15239702 -3.9308457 0 0 Z M-16.875 6.875 C-18.855 9.845 -18.855 9.845 -20.875 12.875 C-18.52061267 14.30444945 -17.39467567 14.96161261 -14.625 14.5 C-14.0475 14.29375 -13.47 14.0875 -12.875 13.875 C-13.47683749 11.85454558 -14.14806096 9.85388961 -14.875 7.875 C-15.535 7.545 -16.195 7.215 -16.875 6.875 Z M-6.875 6.875 C-5.885 8.855 -4.895 10.835 -3.875 12.875 C-2.555 12.545 -1.235 12.215 0.125 11.875 C0.125 11.215 0.125 10.555 0.125 9.875 C-3.09614157 7.55907978 -3.09614157 7.55907978 -6.875 6.875 Z M-33.875 10.875 C-31.19857511 13.05990007 -31.19857511 13.05990007 -28.875 12.875 C-28.215 10.895 -27.555 8.915 -26.875 6.875 C-29.26675599 6.875 -31.95998484 9.57115989 -33.875 10.875 Z M-39.875 17.875 C-40.54619549 19.3312545 -41.21181807 20.79007867 -41.875 22.25 C-42.24625 23.06210937 -42.6175 23.87421875 -43 24.7109375 C-43.99995013 26.79498433 -43.99995013 26.79498433 -43.875 28.875 C-42.06257948 28.90187279 -40.25004767 28.92133715 -38.4375 28.9375 C-36.92349609 28.95490234 -36.92349609 28.95490234 -35.37890625 28.97265625 C-32.93478933 29.16112676 -32.93478933 29.16112676 -31.875 27.875 C-31.80351801 26.52256083 -31.79100546 25.16665633 -31.8125 23.8125 C-31.833125 22.513125 -31.85375 21.21375 -31.875 19.875 C-34.515 19.215 -37.155 18.555 -39.875 17.875 Z M-1.875 19.875 C-1.545 22.845 -1.215 25.815 -0.875 28.875 C3.085 28.875 7.045 28.875 11.125 28.875 C10.691875 27.245625 10.25875 25.61625 9.8125 23.9375 C9.56886719 23.02097656 9.32523438 22.10445312 9.07421875 21.16015625 C8.76097656 20.40605469 8.44773437 19.65195312 8.125 18.875 C4.18829512 17.56276504 2.00011856 18.63203744 -1.875 19.875 Z M-23.875 21.875 C-24.205 24.185 -24.535 26.495 -24.875 28.875 C-19.595 28.875 -14.315 28.875 -8.875 28.875 C-8.875 26.895 -8.875 24.915 -8.875 22.875 C-10.01201597 21.50967451 -10.01201597 21.50967451 -13.03515625 21.77734375 C-14.32292969 21.78894531 -15.61070313 21.80054687 -16.9375 21.8125 C-18.22785156 21.82152344 -19.51820312 21.83054687 -20.84765625 21.83984375 C-21.84667969 21.85144531 -22.84570312 21.86304687 -23.875 21.875 Z M-43.875 35.875 C-43.441875 37.504375 -43.00875 39.13375 -42.5625 40.8125 C-42.31886719 41.72902344 -42.07523438 42.64554688 -41.82421875 43.58984375 C-41.51097656 44.34394531 -41.19773437 45.09804687 -40.875 45.875 C-36.93829512 47.18723496 -34.75011856 46.11796256 -30.875 44.875 C-31.205 41.905 -31.535 38.935 -31.875 35.875 C-35.835 35.875 -39.795 35.875 -43.875 35.875 Z M-23.875 35.875 C-23.875 37.855 -23.875 39.835 -23.875 41.875 C-22.73798403 43.24032549 -22.73798403 43.24032549 -19.71484375 42.97265625 C-18.42707031 42.96105469 -17.13929687 42.94945312 -15.8125 42.9375 C-14.52214844 42.92847656 -13.23179688 42.91945313 -11.90234375 42.91015625 C-10.90332031 42.89855469 -9.90429688 42.88695312 -8.875 42.875 C-8.545 40.565 -8.215 38.255 -7.875 35.875 C-13.155 35.875 -18.435 35.875 -23.875 35.875 Z M-0.875 36.875 C-0.94648199 38.22743917 -0.95899454 39.58334367 -0.9375 40.9375 C-0.916875 42.236875 -0.89625 43.53625 -0.875 44.875 C1.765 45.535 4.405 46.195 7.125 46.875 C7.79619549 45.4187455 8.46181807 43.95992133 9.125 42.5 C9.49625 41.68789062 9.8675 40.87578125 10.25 40.0390625 C11.24995013 37.95501567 11.24995013 37.95501567 11.125 35.875 C9.31257948 35.84812721 7.50004767 35.82866285 5.6875 35.8125 C4.17349609 35.79509766 4.17349609 35.79509766 2.62890625 35.77734375 C0.18478933 35.58887324 0.18478933 35.58887324 -0.875 36.875 Z M-19.875 50.875 C-19.215 52.855 -18.555 54.835 -17.875 56.875 C-16.885 56.875 -15.895 56.875 -14.875 56.875 C-13.885 54.895 -12.895 52.915 -11.875 50.875 C-15.16196233 50.07546862 -16.58523192 49.77841064 -19.875 50.875 Z M-3.875 51.875 C-4.535 53.855 -5.195 55.835 -5.875 57.875 C-3.565 56.555 -1.255 55.235 1.125 53.875 C-1.55142489 51.69009993 -1.55142489 51.69009993 -3.875 51.875 Z M-32.875 52.875 C-32.875 53.535 -32.875 54.195 -32.875 54.875 C-30.53557656 56.6286564 -30.53557656 56.6286564 -27.875 57.875 C-27.215 57.545 -26.555 57.215 -25.875 56.875 C-26.84385372 55.19003702 -27.84486723 53.52321244 -28.875 51.875 C-30.24393239 51.82229537 -30.24393239 51.82229537 -32.875 52.875 Z " fill="#FFFFFF" transform="translate(80.875,32.125)"/>
</svg>
