<?xml version="1.0" encoding="UTF-8"?>
<svg version="1.1" xmlns="http://www.w3.org/2000/svg" width="128" height="128">
<path d="M0 0 C2.31 0 4.62 0 7 0 C7.14695312 0.68964844 7.29390625 1.37929688 7.4453125 2.08984375 C9.45514325 10.51034156 12.35601624 17.85605345 19.75 22.875 C24.2300382 25.38416868 29.04279132 26.75053962 34 28 C34 30.31 34 32.62 34 35 C32.66560711 34.9104227 31.33246081 34.8022897 30 34.6875 C28.88625 34.60048828 28.88625 34.60048828 27.75 34.51171875 C25.25389476 34.04724462 23.18834961 33.37312157 20.828125 32.46801758 C20.11043945 32.19419754 19.39275391 31.9203775 18.65332031 31.63825989 C18.10772461 31.42763412 17.56212891 31.21700836 17 31 C16.98541748 32.22106445 16.97083496 33.44212891 16.95581055 34.70019531 C16.89781435 39.23288172 16.82058143 43.76507204 16.73754883 48.29736328 C16.70430572 50.25854436 16.67627185 52.21982098 16.65356445 54.18115234 C16.62000719 57.00139047 16.56769101 59.82075365 16.51171875 62.640625 C16.50532883 63.51680481 16.4989389 64.39298462 16.49235535 65.29571533 C16.47256119 66.11626404 16.45276703 66.93681274 16.43237305 67.78222656 C16.42126999 68.50170471 16.41016693 69.22118286 16.39872742 69.96246338 C15.85034374 72.76475833 15.09574064 74.04282324 13 76 C10.00195313 76.50120544 10.00195313 76.50120544 6.28125 76.50170898 C5.60288086 76.50711197 4.92451172 76.51251495 4.22558594 76.51808167 C1.98328007 76.53058888 -0.25774669 76.51406665 -2.5 76.49609375 C-4.05794339 76.49624869 -5.61588718 76.49773691 -7.17382812 76.50050354 C-10.43897542 76.50188841 -13.70368391 76.48931534 -16.96875 76.46655273 C-21.15553921 76.43816738 -25.34159921 76.44090401 -29.52844238 76.45364285 C-32.74550614 76.46059556 -35.96240114 76.4528155 -39.17944336 76.44038582 C-40.72321933 76.43586732 -42.26701339 76.435538 -43.81079102 76.43945122 C-45.96798885 76.44235957 -48.12417941 76.42587642 -50.28125 76.40405273 C-51.50908203 76.39864975 -52.73691406 76.39324677 -54.00195312 76.38768005 C-57 76 -57 76 -58.8956604 74.7971344 C-60.38452867 72.37424168 -60.38086385 70.68111685 -60.38818359 67.84179688 C-60.39764008 66.79060669 -60.40709656 65.7394165 -60.4168396 64.65637207 C-60.41076691 63.52195679 -60.40469421 62.3875415 -60.3984375 61.21875 C-60.40130768 60.05371948 -60.40417786 58.88868896 -60.40713501 57.68835449 C-60.40917767 55.22370925 -60.40363379 52.75904788 -60.39111328 50.29443359 C-60.37506341 46.51493185 -60.39095614 42.7364996 -60.41015625 38.95703125 C-60.40817386 36.5651018 -60.40433026 34.17317301 -60.3984375 31.78125 C-60.40451019 30.64683472 -60.41058289 29.51241943 -60.4168396 28.34362793 C-60.40738312 27.29243774 -60.39792664 26.24124756 -60.38818359 25.15820312 C-60.38579681 24.23237427 -60.38341003 23.30654541 -60.38095093 22.35266113 C-60 20 -60 20 -58.84126282 18.20463562 C-56.23109481 16.4969482 -54.25943239 16.60020369 -51.15161133 16.56762695 C-49.35008354 16.53793571 -49.35008354 16.53793571 -47.51216125 16.50764465 C-46.21521835 16.50125473 -44.91827545 16.49486481 -43.58203125 16.48828125 C-42.24108734 16.47143541 -40.90015924 16.45328529 -39.55924988 16.43388367 C-36.03297869 16.38636642 -32.50677156 16.35656867 -28.98028564 16.33044434 C-25.3806086 16.3006472 -21.78115232 16.25411406 -18.18164062 16.20898438 C-11.12122007 16.12293207 -4.06073136 16.05559556 3 16 C2.78561279 15.39744385 2.57122559 14.7948877 2.3503418 14.17407227 C2.07359619 13.37541748 1.79685059 12.5767627 1.51171875 11.75390625 C1.23545654 10.9657251 0.95919434 10.17754395 0.67456055 9.36547852 C-0.2554784 6.104115 -0.21507539 3.36951447 0 0 Z M-46 30 C-46 40.89 -46 51.78 -46 63 C-30.16 63 -14.32 63 2 63 C2 52.11 2 41.22 2 30 C-13.84 30 -29.68 30 -46 30 Z " fill="#FFFFFF" transform="translate(85,18)"/>
<path d="M0 0 C2.31 0 4.62 0 7 0 C7.23074219 0.61488281 7.46148437 1.22976562 7.69921875 1.86328125 C9.74248413 7.03310106 9.74248413 7.03310106 13.5 11 C15.67109253 11.86843701 17.70237925 12.57451468 20 13 C20 15.31 20 17.62 20 20 C14.59883854 20.08751882 10.84796033 19.38366778 6.625 15.875 C2.42452861 11.79167323 0.19370958 8.03478348 -0.1875 2.0625 C-0.125625 1.381875 -0.06375 0.70125 0 0 Z " fill="#FFFFFF" transform="translate(99,18)"/>
<path d="M0 0 C3.5 0.25 3.5 0.25 5.5 2.25 C5.80078125 4.125 5.80078125 4.125 5.8125 6.25 C5.82925781 6.95125 5.84601563 7.6525 5.86328125 8.375 C5.68345703 9.303125 5.68345703 9.303125 5.5 10.25 C2.02957297 12.56361802 0.58165827 12.76020728 -3.5 12.25 C-5.4375 10.625 -5.4375 10.625 -6.5 8.25 C-6.18385334 2.98088898 -5.67193396 0.40513814 0 0 Z " fill="#FFFFFF" transform="translate(119.5,11.75)"/>
</svg>
